<svg xmlns="http://www.w3.org/2000/svg" fill="none" viewBox="0 0 24 24"><path fill="#1bb5b8ff" fill-rule="evenodd" d="M13 6a2 2 0 1 0 0-4 2 2 0 0 0 0 4m-1.947.606a1 1 0 0 1 1.028.08l1 .715a1 1 0 0 1 .401 1.002l-1.049 5.444 4.4 6.598a1 1 0 0 1-1.665 1.11l-4.626-6.94-.816-1.223a1 1 0 0 1-.153-.729l.597-3.38-1.785.893-.572 2.857a1 1 0 0 1-1.961-.392l.667-3.337a1 1 0 0 1 .534-.698zm5.63 6.343-2.874-.958.382-1.981 3.125 1.041a1 1 0 0 1-.632 1.898m-10.555 7.56L9.396 14.7l.314.47.931 1.397-2.77 4.923a1 1 0 0 1-1.743-.98" clip-rule="evenodd"/></svg>